# xmcd
#
# Track frame offsets: 
#        150
#        25359
#        50890
#        75194
#        96615
#        121986
#        146939
#
# Disc length: 2284 seconds
#
# Revision: 0
# Processed by: cddbd v1.5.2PL0 Copyright (c) Steve Scherf et al.
# Submitted via: ExactAudioCopy v1.0b3
#
DISCID=6208ea07
DTITLE=B.B. King - 1985 Saratoga, CA
DYEAR=1985
DGENRE=blues
TTITLE0=1. Better Off Dead <incomplete, cuts in after beginning of tun
TTITLE0=e>
TTITLE1=2. Ain't Nobody's Business
TTITLE2=3. One Of Those Nights Again
TTITLE3=4. Caledonia
TTITLE4=5. Outside Help
TTITLE5=6. The Thrill Is Gone
TTITLE6=7. Into The Night
EXTD=
EXTT0=
EXTT1=
EXTT2=
EXTT3=
EXTT4=
EXTT5=
EXTT6=
PLAYORDER=
